<svg width="124" height="124" viewBox="0 0 124 124" fill="none" xmlns="http://www.w3.org/2000/svg">
<circle cx="62" cy="62" r="62" fill="#9E9BDD"/>
<circle cx="62" cy="62" r="46" fill="#746FDE"/>
<circle cx="62" cy="62" r="30" fill="#3F38DD"/>
<path d="M61.8136 68.0852C60.6936 68.0852 59.7824 68.9964 59.7824 70.1164C59.7824 71.2364 60.6937 72.1476 61.8136 72.1476C62.9335 72.1476 63.8448 71.2364 63.8448 70.1164C63.8448 68.9964 62.9337 68.0852 61.8136 68.0852ZM61.8136 70.5851C61.5551 70.5851 61.3448 70.3749 61.3448 70.1164C61.3448 69.8579 61.5551 69.6476 61.8136 69.6476C62.0721 69.6476 62.2823 69.8579 62.2823 70.1164C62.2823 70.3749 62.0721 70.5851 61.8136 70.5851Z" fill="white"/>
<path d="M68.0842 65.4961C67.9389 65.3508 67.7373 65.2672 67.5319 65.2672C67.3264 65.2672 67.1248 65.3507 66.9795 65.4961C66.8334 65.6414 66.7506 65.8429 66.7506 66.0484C66.7506 66.2539 66.8334 66.4555 66.9795 66.6007C67.1248 66.7461 67.3264 66.8297 67.5319 66.8297C67.7373 66.8297 67.9389 66.7461 68.0842 66.6007C68.2295 66.4555 68.3131 66.2539 68.3131 66.0484C68.3131 65.8429 68.2295 65.6414 68.0842 65.4961Z" fill="white"/>
<path d="M78.0933 53.249H77.251L66.2311 42.229C65.926 41.924 65.4313 41.924 65.1263 42.229L62.3031 45.0522L51.0122 42.0269C50.5954 41.9151 50.167 42.1625 50.0553 42.5793L47.1966 53.249H45.2817C43.4725 53.249 42.0005 54.7208 42.0005 56.5301C42.0005 56.5735 42.0022 56.6165 42.0038 56.6595C42.002 56.681 42.0005 56.7026 42.0005 56.7245V78.0939C42.0005 80.2476 43.7529 82 45.9067 82H73.8746C73.8867 82 73.8986 81.9992 73.9107 81.999H78.0932C80.247 81.999 81.9993 80.2468 81.9993 78.0929V57.1551C81.9994 55.0012 80.2471 53.249 78.0933 53.249ZM77.3953 54.8114H78.0933C79.3856 54.8114 80.437 55.8628 80.437 57.1551V63.4162C80.437 64.4372 79.6063 65.2679 78.5853 65.2679H77.7808V62.1549C77.7808 60.0283 76.0723 58.2944 73.9559 58.2508L77.3953 54.8114ZM63.0891 46.476C63.0891 46.4759 63.0892 46.4758 63.0893 46.4757L65.6788 43.8862L75.8949 54.1023L71.7738 58.2234H70.3445L72.2139 56.354C72.519 56.0489 72.519 55.5542 72.2139 55.2491C71.5815 54.6167 71.5815 53.5878 72.2139 52.9554C72.519 52.6503 72.519 52.1556 72.2139 51.8505L67.9305 47.5672C67.6254 47.2621 67.1307 47.2621 66.8256 47.5672C66.1931 48.1997 65.1641 48.1997 64.5318 47.5672C64.2267 47.2621 63.732 47.2621 63.427 47.5672L52.7707 58.2235H51.3415L63.0891 46.476ZM60.7899 55.2883C59.0065 55.2883 57.5123 56.5476 57.1478 58.2235H54.9802L64.0479 49.1558C65.0488 49.7524 66.3086 49.7524 67.3095 49.1558L70.6252 52.4715C70.0287 53.4723 70.0287 54.7323 70.6252 55.7331L68.1348 58.2235H64.432C64.0676 56.5476 62.5734 55.2883 60.7899 55.2883ZM62.8045 58.2235H58.7757C59.0927 57.4206 59.8759 56.8508 60.7901 56.8508C61.7042 56.8508 62.4873 57.4206 62.8045 58.2235ZM50.5158 56.8395L52.5847 49.1182C53.152 49.1273 53.7163 48.9825 54.2216 48.6905C54.7271 48.3987 55.1338 47.9838 55.4105 47.4867L58.9265 48.4288L53.8241 53.5312L50.5158 56.8395ZM51.3624 43.7383L61.0273 46.328L60.2023 47.1531L55.153 45.8001C54.9528 45.7465 54.7396 45.7746 54.5602 45.8782C54.3808 45.9818 54.2498 46.1524 54.1963 46.3526C54.0841 46.771 53.8157 47.1208 53.4405 47.3374C53.0653 47.554 52.6282 47.6115 52.2097 47.4994C51.7931 47.3877 51.3645 47.6351 51.2529 48.0519L48.5205 58.2488H47.4743L51.3624 43.7383ZM45.2817 54.8114H46.7777L45.8566 58.2488H45.2816C44.3339 58.2488 43.563 57.4778 43.563 56.5301C43.563 55.5824 44.3341 54.8114 45.2817 54.8114ZM80.437 78.0929C80.437 79.3852 79.3856 80.4365 78.0933 80.4365H76.9981C77.4893 79.7834 77.7808 78.9721 77.7808 78.0938V74.9551H78.2495C79.0655 74.9551 79.8207 74.6923 80.437 74.2481V78.0929ZM80.437 71.2052C80.437 72.4114 79.4556 73.3926 78.2495 73.3926H61.8438C60.0345 73.3926 58.5626 71.9208 58.5626 70.1115C58.5626 68.3022 60.0345 66.8303 61.8438 66.8303H64.2114C64.6429 66.8303 64.9927 66.4805 64.9927 66.049C64.9927 65.6176 64.6429 65.2678 64.2114 65.2678H61.8438C59.173 65.2678 57.0002 67.4406 57.0002 70.1114C57.0002 72.7822 59.173 74.955 61.8438 74.955H76.2184V78.0937C76.2184 79.374 75.1864 80.4179 73.9108 80.4374H47.3129V71.6398C47.3129 71.2084 46.9631 70.8586 46.5316 70.8586C46.1002 70.8586 45.7504 71.2084 45.7504 71.6398V80.4317C44.5307 80.351 43.563 79.3336 43.563 78.0939V59.3236C44.0632 59.6325 44.6519 59.8112 45.2816 59.8112H73.8745C75.1669 59.8112 76.2182 60.8626 76.2182 62.1549V65.2679H70.5695C70.1381 65.2679 69.7883 65.6177 69.7883 66.0491C69.7883 66.4805 70.1381 66.8304 70.5695 66.8304H78.5853C79.2676 66.8304 79.9032 66.6284 80.437 66.2823V71.2052Z" fill="white"/>
<path d="M47.0841 68.0405C46.9388 67.8953 46.7372 67.8116 46.5317 67.8116C46.3263 67.8116 46.1247 67.8952 45.9794 68.0405C45.8341 68.1858 45.7505 68.3874 45.7505 68.5928C45.7505 68.7983 45.8341 68.9999 45.9794 69.1452C46.1247 69.2905 46.3263 69.3741 46.5317 69.3741C46.7372 69.3741 46.9388 69.2905 47.0841 69.1452C47.2294 68.9999 47.313 68.7983 47.313 68.5928C47.3129 68.3874 47.2293 68.1858 47.0841 68.0405Z" fill="white"/>
</svg>
