<svg width="10" height="10" viewBox="0 0 10 10" fill="none" xmlns="http://www.w3.org/2000/svg">
    <path d="M5.83281 10C5.77934 9.99996 5.72623 9.98997 5.67552 9.97043L4.00573 9.32932C3.90643 9.29082 3.82017 9.21718 3.75921 9.11888C3.69825 9.02057 3.66569 8.9026 3.66615 8.78173V5.9161L3.66428 5.91298L0.150755 1.19087C0.0728466 1.08614 0.0226192 0.957818 0.00603604 0.821134C-0.0105471 0.684451 0.00721044 0.545147 0.0572005 0.419762C0.107191 0.294377 0.187313 0.188177 0.288056 0.113772C0.388799 0.0393659 0.505931 -0.000120525 0.625544 2.76346e-07H9.37446C9.49407 -0.000120525 9.6112 0.0393659 9.71194 0.113772C9.81269 0.188177 9.89281 0.294377 9.9428 0.419762C9.99279 0.545147 10.0105 0.684451 9.99397 0.821134C9.97738 0.957818 9.92716 1.08614 9.84925 1.19087L6.33468 5.91346L6.33281 5.91659V9.42307C6.333 9.4989 6.3202 9.57402 6.29514 9.64412C6.27008 9.71421 6.23326 9.7779 6.18679 9.83152C6.14032 9.88513 6.08513 9.92762 6.02438 9.95653C5.96363 9.98545 5.89852 10.0002 5.83281 10Z" fill="#2D294E" fill-opacity="0.55"/>
</svg>
