<svg width="77" height="77" viewBox="0 0 77 77" fill="none" xmlns="http://www.w3.org/2000/svg">
<path d="M23.2864 36.6378V38.9753C23.2879 39.1929 23.2335 39.4073 23.1284 39.5978C23.0232 39.7884 22.8709 39.9488 22.686 40.0635C22.5011 40.1783 22.2898 40.2436 22.0724 40.2533C21.8549 40.2629 21.6387 40.2166 21.4443 40.1186L15.9182 37.3492C15.7501 37.2634 15.6027 37.142 15.4863 36.9935L14.8511 36.1804L20.174 38.8482C20.3683 38.9462 20.5846 38.9926 20.802 38.9829C21.0194 38.9733 21.2307 38.9079 21.4156 38.7931C21.6005 38.6784 21.7528 38.518 21.858 38.3275C21.9631 38.1369 22.0175 37.9225 22.016 37.7049V35.3674C22.0158 35.273 22.003 35.179 21.9779 35.0879L22.7147 35.5707C22.8902 35.688 23.0342 35.8467 23.1339 36.0328C23.2336 36.2189 23.2859 36.4267 23.2864 36.6378Z" fill="#3D9AE2"/>
<path d="M27.4827 36.4392L22.6044 39.4119C22.4184 39.5273 22.2648 39.6881 22.1581 39.8793C22.0514 40.0704 21.9952 40.2855 21.9946 40.5044V44.3283C21.9972 44.6613 22.1294 44.9802 22.363 45.2176L24.3957 47.2502C24.4929 47.3434 24.6044 47.4206 24.726 47.4788L26.3775 48.3046C26.5889 48.4111 26.7664 48.5746 26.8898 48.7766C27.0133 48.9787 27.0778 49.2112 27.0762 49.4479V53.5512C27.0787 53.689 27.1 53.8258 27.1397 53.9578L29.4137 60.7543C29.4752 60.941 29.5796 61.1107 29.7186 61.2497C29.8577 61.3887 30.0273 61.4932 30.2141 61.5546L31.7639 62.0628C31.9546 62.127 32.1579 62.1447 32.3567 62.1144C32.5556 62.0841 32.7444 62.0067 32.9073 61.8886C33.0702 61.7704 33.2024 61.6151 33.293 61.4355C33.3836 61.2558 33.43 61.0571 33.4281 60.8559V57.0702C33.4265 56.8334 33.491 56.6009 33.6145 56.3989C33.738 56.1969 33.9154 56.0334 34.1269 55.9269L37.811 54.0848C38.0194 53.9813 38.195 53.822 38.3184 53.6246C38.4417 53.4273 38.5079 53.1996 38.5097 52.9669L38.5224 50.8453C38.5243 50.5779 38.6099 50.3177 38.7671 50.1013C38.9242 49.8849 39.1452 49.723 39.399 49.6385L41.5967 48.9144C41.8015 48.8474 41.9859 48.7295 42.1326 48.5718C42.2792 48.414 42.3834 48.2215 42.4352 48.0124L43.1466 45.154C43.1929 44.967 43.196 44.7718 43.1556 44.5834C43.1153 44.395 43.0327 44.2182 42.914 44.0664C42.7952 43.9146 42.6435 43.7919 42.4704 43.7074C42.2972 43.6229 42.107 43.5789 41.9143 43.5788H40.428C40.2187 43.5777 40.013 43.5249 39.8291 43.4252C39.6451 43.3255 39.4886 43.1818 39.3736 43.0071L37.6204 40.3393C37.5031 40.1638 37.3444 40.0198 37.1583 39.9201C36.9722 39.8204 36.7644 39.7681 36.5533 39.7676H32.6913C32.523 39.7682 32.3564 39.7348 32.2014 39.6693C32.0464 39.6038 31.9062 39.5076 31.7893 39.3865L29.058 36.6298C28.8545 36.4266 28.5887 36.2974 28.3032 36.2628C28.0177 36.2283 27.7288 36.2904 27.4827 36.4392Z" fill="#5AAAE7"/>
<path d="M59.2009 52.8387L62.0974 55.7352C58.4608 60.7115 53.3437 64.4105 47.478 66.303C41.6122 68.1955 35.2982 68.1846 29.4389 66.272C23.5797 64.3593 18.4753 60.6428 14.8559 55.654C11.2364 50.6652 9.28726 44.6596 9.28716 38.4961C9.28241 35.8861 9.63286 33.2876 10.3289 30.7722L14.1909 35.7267C14.3073 35.8752 14.4547 35.9966 14.6228 36.0824L14.8261 36.184L20.149 38.8518C20.3434 38.9497 20.5596 38.9961 20.7771 38.9865C20.9945 38.9768 21.2058 38.9115 21.3907 38.7967C21.5756 38.6819 21.7279 38.5216 21.8331 38.331C21.9382 38.1405 21.9926 37.9261 21.9911 37.7085V35.371C21.9909 35.2765 21.9781 35.1825 21.953 35.0915C21.8856 34.769 21.6939 34.486 21.4194 34.3038L19.4884 33.008L18.7516 32.5253C18.5761 32.408 18.4321 32.2492 18.3324 32.0632C18.2327 31.8771 18.1804 31.6693 18.1799 31.4582V29.3747C18.1799 29.0819 18.281 28.798 18.4662 28.5711C18.6514 28.3443 18.9093 28.1883 19.1962 28.1298L24.3667 27.1008C24.477 27.0761 24.5837 27.0377 24.6843 26.9864L29.3467 24.6616C29.5248 24.5743 29.6778 24.4431 29.7913 24.2805L33.1579 19.796C33.331 19.5649 33.5773 19.3993 33.8566 19.326L38.0235 18.2843C38.1766 18.2513 38.3217 18.1882 38.4503 18.0988C38.579 18.0094 38.6886 17.8954 38.773 17.7634L39.9545 15.9976C40.0967 15.783 40.1718 15.5309 40.1704 15.2735C40.1629 14.9763 40.0523 14.6909 39.8577 14.4661C39.6631 14.2413 39.3964 14.0912 39.1033 14.0412L34.0471 13.1901H34.0217C33.8342 13.1608 33.6562 13.0882 33.5018 12.9779C33.3474 12.8676 33.2209 12.7227 33.1324 12.5549L32.5227 11.475L31.735 10.0776C35.5703 9.15974 39.552 9.02988 43.4389 9.6959C47.3258 10.3619 51.0371 11.8099 54.348 13.9523L54.0685 14.1428C53.8621 14.2824 53.619 14.3575 53.3698 14.3588H48.085C47.8739 14.3593 47.6661 14.4116 47.48 14.5113C47.2939 14.611 47.1352 14.755 47.0179 14.9305L45.5569 17.1155C45.373 17.3956 45.3073 17.737 45.3739 18.0653C45.4405 18.3937 45.6341 18.6824 45.9126 18.8687L46.6621 19.3641L48.1993 20.3931C48.3466 20.4928 48.5133 20.5602 48.6884 20.5908C48.8636 20.6215 49.0433 20.6147 49.2156 20.571L53.2936 19.5547C53.5883 19.4794 53.9005 19.5156 54.1702 19.6563L58.1719 21.6508C58.3717 21.7509 58.5943 21.7966 58.8173 21.7832C59.0404 21.7699 59.256 21.6979 59.4423 21.5746L61.3479 20.3042C61.7163 20.7615 62.072 21.2316 62.415 21.7143C63.5218 23.2674 64.4628 24.9323 65.2226 26.6815L60.5221 29.362C60.252 29.5133 59.938 29.5671 59.6329 29.5145L53.9923 28.3838C53.8341 28.3469 53.6836 28.2824 53.5477 28.1933L50.2574 26.0082C50.0509 25.8687 49.8078 25.7935 49.5586 25.7923H45.5442C45.3331 25.7927 45.1253 25.8451 44.9392 25.9448C44.7531 26.0445 44.5944 26.1884 44.4771 26.3639L42.6223 29.1334C42.5273 29.2827 42.4637 29.4499 42.4353 29.6246C42.4069 29.7993 42.4144 29.9779 42.4571 30.1497L43.3972 33.9735C43.4558 34.1985 43.5741 34.4034 43.7396 34.5667C43.905 34.7299 44.1116 34.8454 44.3373 34.9009L44.6041 34.9644L48.3137 35.8664C48.5439 35.9279 48.7872 35.9191 49.0124 35.841L51.7437 34.9517C51.9661 34.8818 52.2035 34.8745 52.4298 34.9305C52.6561 34.9865 52.8627 35.1037 53.0268 35.2693L54.691 36.9335C54.9009 37.1677 55.0183 37.4703 55.0213 37.7847V41.888C55.0239 42.1625 55.1128 42.4291 55.2754 42.6503L58.5784 47.0458C58.741 47.2669 58.8299 47.5336 58.8325 47.808V51.9495C58.8351 52.2825 58.9673 52.6014 59.2009 52.8387Z" fill="#5AAAE7"/>
<path d="M41.2044 17.2686L40.023 19.0345C39.9386 19.1665 39.8289 19.2804 39.7003 19.3698C39.5716 19.4592 39.4266 19.5223 39.2734 19.5553L35.1066 20.597C34.8273 20.6703 34.581 20.836 34.4079 21.0671L31.0414 25.5515C30.9278 25.7142 30.7748 25.8453 30.5967 25.9326L25.9344 28.2575C25.8337 28.3087 25.727 28.3471 25.6168 28.3718L20.4464 29.4008C20.1594 29.4594 19.9015 29.6153 19.7163 29.8422C19.5311 30.069 19.43 30.3529 19.4301 30.6458V32.7292C19.4302 32.8237 19.443 32.9177 19.4682 33.0087L18.7313 32.526C18.5558 32.4086 18.4119 32.2499 18.3122 32.0638C18.2125 31.8777 18.1601 31.6699 18.1597 31.4588V29.3754C18.1596 29.0825 18.2607 28.7986 18.4459 28.5718C18.6311 28.3449 18.889 28.189 19.176 28.1304L24.3464 27.1014C24.4567 27.0767 24.5634 27.0383 24.664 26.9871L29.3263 24.6623C29.5044 24.5749 29.6574 24.4438 29.771 24.2811L33.1375 19.7967C33.3106 19.5656 33.5569 19.3999 33.8362 19.3266L38.0031 18.2849C38.1562 18.2519 38.3013 18.1888 38.4299 18.0994C38.5586 18.0101 38.6682 17.8961 38.7526 17.7641L39.934 15.9982C40.0762 15.7836 40.1514 15.5316 40.15 15.2741L40.3533 15.3122C40.5626 15.3468 40.7599 15.4332 40.9272 15.5636C41.0945 15.694 41.2266 15.8643 41.3112 16.0588C41.3958 16.2533 41.4304 16.466 41.4117 16.6773C41.3931 16.8886 41.3218 17.0919 41.2044 17.2686Z" fill="#3D9AE2"/>
<path d="M43.1922 44.8381C43.3849 44.8383 43.575 44.8823 43.7482 44.9667C43.9214 45.0512 44.0731 45.174 44.1918 45.3258C44.3105 45.4776 44.3932 45.6543 44.4335 45.8428C44.4738 46.0312 44.4707 46.2263 44.4245 46.4134L43.713 49.2718C43.6612 49.4809 43.5571 49.6734 43.4104 49.8311C43.2637 49.9889 43.0793 50.1068 42.8746 50.1737L40.6768 50.8978C40.423 50.9824 40.2021 51.1442 40.0449 51.3606C39.8877 51.5771 39.8022 51.8372 39.8002 52.1047L39.7875 54.2262C39.7858 54.459 39.7195 54.6866 39.5962 54.884C39.4729 55.0813 39.2972 55.2406 39.0888 55.3442L35.4047 57.1862C35.1932 57.2928 35.0158 57.4563 34.8923 57.6583C34.7689 57.8603 34.7043 58.0928 34.706 58.3296V62.1153C34.7078 62.3165 34.6615 62.5152 34.5709 62.6948C34.4802 62.8745 34.348 63.0298 34.1851 63.1479C34.0222 63.266 33.8335 63.3435 33.6346 63.3738C33.4357 63.4041 33.2324 63.3864 33.0418 63.3222L31.4919 62.814C31.3052 62.7525 31.1355 62.6481 30.9965 62.5091C30.8575 62.3701 30.753 62.2004 30.6915 62.0137L28.4175 55.2171C28.3779 55.0852 28.3565 54.9484 28.354 54.8106V50.7073C28.3557 50.4705 28.2911 50.238 28.1677 50.036C28.0442 49.834 27.8667 49.6705 27.6553 49.5639L26.0038 48.7382C25.8823 48.68 25.7708 48.6028 25.6735 48.5095L23.6409 46.4769C23.4072 46.2396 23.2751 45.9207 23.2725 45.5877V41.7638C23.273 41.5449 23.3293 41.3298 23.436 41.1386C23.5426 40.9475 23.6962 40.7867 23.8822 40.6713L28.7605 37.6986C29.0067 37.5498 29.2955 37.4877 29.5811 37.5222C29.8666 37.5567 30.1323 37.6859 30.3358 37.8891L33.0672 40.6459C33.184 40.767 33.3242 40.8631 33.4792 40.9286C33.6342 40.9941 33.8009 41.0276 33.9691 41.027H37.8311C38.0422 41.0274 38.25 41.0798 38.4361 41.1795C38.6222 41.2792 38.7809 41.4232 38.8983 41.5987L40.6514 44.2665C40.7665 44.4412 40.9229 44.5848 41.1069 44.6846C41.2908 44.7843 41.4966 44.837 41.7058 44.8381H43.1922Z" fill="#3D9AE2"/>
<path d="M62.4109 21.7035L60.7086 22.8342C60.5223 22.9575 60.3067 23.0295 60.0837 23.0428C59.8606 23.0562 59.638 23.0105 59.4382 22.9104L55.4365 20.9159C55.1668 20.7752 54.8547 20.739 54.56 20.8143L50.4821 21.8306C50.3097 21.8743 50.13 21.8811 49.9549 21.8504C49.7797 21.8198 49.613 21.7524 49.4657 21.6527L47.1791 20.1283C47.0452 20.0401 46.9302 19.9262 46.8407 19.7931C46.7513 19.6601 46.6893 19.5106 46.6582 19.3533L48.1954 20.3823C48.3426 20.482 48.5093 20.5494 48.6845 20.58C48.8596 20.6107 49.0393 20.6039 49.2117 20.5602L53.2896 19.5439C53.5843 19.4686 53.8965 19.5048 54.1662 19.6455L58.1679 21.64C58.3676 21.7402 58.5902 21.7858 58.8133 21.7725C59.0363 21.7591 59.2519 21.6871 59.4382 21.5638L61.3438 20.2934C61.7122 20.7508 62.0679 21.2208 62.4109 21.7035Z" fill="#3D9AE2"/>
<path d="M54.3215 36.5274C54.1574 36.3619 53.9508 36.2447 53.7245 36.1886C53.4982 36.1326 53.2608 36.14 53.0384 36.2099L50.3071 37.0991C50.0819 37.1772 49.8386 37.186 49.6084 37.1245L45.632 36.159C45.4063 36.1036 45.1997 35.9881 45.0343 35.8248C44.8688 35.6616 44.7505 35.4566 44.6919 35.2317L44.6284 34.9522L48.338 35.8541C48.5682 35.9157 48.8115 35.9068 49.0367 35.8287L51.768 34.9395C51.9904 34.8696 52.2278 34.8622 52.4541 34.9183C52.6805 34.9743 52.887 35.0915 53.0511 35.2571L54.3215 36.5274Z" fill="#3D9AE2"/>
<path d="M39.1136 14.0305C39.3229 14.0651 39.5203 14.1515 39.6876 14.2819C39.8549 14.4123 39.9869 14.5825 40.0715 14.7771C40.1562 14.9716 40.1907 15.1842 40.1721 15.3956C40.1534 15.6069 40.0822 15.8102 39.9648 15.9869L38.7833 17.7527C38.699 17.8847 38.5893 17.9987 38.4606 18.0881C38.332 18.1775 38.1869 18.2405 38.0338 18.2736L33.8669 19.3153C33.5876 19.3885 33.3413 19.5542 33.1682 19.7853L29.8017 24.2698C29.6881 24.4324 29.5351 24.5635 29.3571 24.6509L24.6947 26.9757C24.5941 27.0269 24.4874 27.0653 24.3771 27.09L19.2067 28.119C18.9197 28.1776 18.6618 28.3335 18.4766 28.5604C18.2914 28.7872 18.1903 29.0711 18.1903 29.364V31.4474C18.1908 31.6585 18.2432 31.8663 18.3429 32.0524C18.4426 32.2385 18.5865 32.3972 18.762 32.5145L21.4298 34.2931C21.6053 34.4104 21.7493 34.5691 21.849 34.7552C21.9487 34.9413 22.0011 35.1491 22.0015 35.3602V37.6977C22.003 37.9153 21.9486 38.1297 21.8435 38.3203C21.7383 38.5108 21.586 38.6712 21.4011 38.7859C21.2162 38.9007 21.0049 38.966 20.7875 38.9757C20.5701 38.9853 20.3538 38.939 20.1594 38.841L14.6333 36.0716C14.4651 35.9858 14.3177 35.8645 14.2013 35.7159L10.3394 30.7614C11.7249 25.71 14.4428 21.1238 18.2087 17.4831C21.9746 13.8424 26.65 11.2809 31.7454 10.0669L33.1428 12.5441C33.2313 12.712 33.3577 12.8569 33.5121 12.9672C33.6665 13.0774 33.8446 13.1501 34.0321 13.1793L39.1136 14.0305Z" fill="#333067"/>
<path d="M41.9143 43.5788C42.107 43.5789 42.2972 43.6229 42.4704 43.7074C42.6435 43.7919 42.7952 43.9146 42.914 44.0664C43.0327 44.2182 43.1153 44.395 43.1556 44.5834C43.196 44.7718 43.1929 44.967 43.1466 45.154L42.4352 48.0124C42.3834 48.2215 42.2792 48.414 42.1326 48.5718C41.9859 48.7295 41.8015 48.8474 41.5967 48.9144L39.399 49.6385C39.1452 49.723 38.9242 49.8849 38.7671 50.1013C38.6099 50.3177 38.5243 50.5779 38.5224 50.8453L38.5097 52.9669C38.5079 53.1996 38.4417 53.4273 38.3184 53.6246C38.195 53.822 38.0194 53.9813 37.811 54.0848L34.1269 55.9269C33.9154 56.0334 33.738 56.1969 33.6145 56.3989C33.491 56.6009 33.4265 56.8334 33.4281 57.0702V60.8559C33.43 61.0571 33.3836 61.2558 33.293 61.4355C33.2024 61.6151 33.0702 61.7704 32.9073 61.8886C32.7444 62.0067 32.5556 62.0841 32.3567 62.1144C32.1579 62.1447 31.9546 62.127 31.7639 62.0628L30.2141 61.5546C30.0273 61.4932 29.8577 61.3887 29.7186 61.2497C29.5796 61.1107 29.4752 60.941 29.4137 60.7543L27.1397 53.9578C27.1 53.8258 27.0787 53.689 27.0762 53.5512V49.4479C27.0778 49.2112 27.0133 48.9787 26.8898 48.7766C26.7664 48.5746 26.5889 48.4111 26.3775 48.3046L24.726 47.4788C24.6044 47.4206 24.4929 47.3434 24.3957 47.2502L22.363 45.2176C22.1294 44.9802 21.9972 44.6613 21.9946 44.3283V40.5044C21.9952 40.2855 22.0514 40.0704 22.1581 39.8793C22.2648 39.6881 22.4184 39.5273 22.6044 39.4119L27.4827 36.4392C27.7288 36.2904 28.0177 36.2283 28.3032 36.2628C28.5887 36.2974 28.8545 36.4266 29.058 36.6298L31.7893 39.3865C31.9062 39.5076 32.0464 39.6038 32.2014 39.6693C32.3564 39.7348 32.523 39.7682 32.6913 39.7676H36.5533C36.7644 39.7681 36.9722 39.8204 37.1583 39.9201C37.3444 40.0198 37.5031 40.1638 37.6204 40.3393L39.3736 43.0071C39.4886 43.1818 39.6451 43.3255 39.8291 43.4252C40.013 43.5249 40.2187 43.5777 40.428 43.5788H41.9143Z" fill="#333067"/>
<path d="M61.3792 20.2913L59.4736 21.5616C59.2873 21.6849 59.0717 21.7569 58.8487 21.7703C58.6256 21.7837 58.403 21.738 58.2032 21.6379L54.2015 19.6434C53.9318 19.5027 53.6197 19.4665 53.3249 19.5417L49.247 20.558C49.0746 20.6018 48.895 20.6085 48.7198 20.5779C48.5446 20.5472 48.378 20.4798 48.2307 20.3802L45.944 18.8557C45.6655 18.6695 45.4719 18.3807 45.4053 18.0524C45.3386 17.724 45.4044 17.3827 45.5883 17.1026L47.0492 14.9176C47.1666 14.742 47.3253 14.5981 47.5114 14.4984C47.6975 14.3987 47.9052 14.3463 48.1164 14.3459H53.4012C53.6503 14.3446 53.8935 14.2695 54.0999 14.1299L54.3794 13.9394C57.0496 15.6528 59.4153 17.7995 61.3792 20.2913Z" fill="#333067"/>
<path d="M65.2512 26.6719C67.3297 31.3621 68.1352 36.5173 67.5865 41.618C67.0379 46.7186 65.1544 51.5846 62.126 55.7255L59.2296 52.829C58.9959 52.5917 58.8638 52.2728 58.8612 51.9397V47.7983C58.8586 47.5239 58.7697 47.2572 58.6071 47.0361L55.3041 42.6406C55.1415 42.4195 55.0526 42.1528 55.05 41.8783V37.775C55.0475 37.4382 54.9156 37.1153 54.6816 36.873L53.0555 35.2597C52.8914 35.0941 52.6849 34.9769 52.4586 34.9208C52.2322 34.8648 51.9949 34.8722 51.7725 34.9421L49.0411 35.8313C48.816 35.9094 48.5726 35.9182 48.3424 35.8567L44.3661 34.8912C44.1404 34.8358 43.9339 34.7203 43.7684 34.557C43.6029 34.3938 43.4846 34.1888 43.4261 33.9639L42.486 30.14C42.4432 29.9683 42.4358 29.7896 42.4642 29.6149C42.4926 29.4402 42.5562 29.2731 42.6511 29.1237L44.5059 26.3543C44.6232 26.1788 44.7819 26.0348 44.968 25.9351C45.1541 25.8354 45.3619 25.7831 45.573 25.7826H49.5874C49.8365 25.7839 50.0797 25.859 50.2861 25.9986L53.5764 28.1836C53.7123 28.2727 53.8628 28.3372 54.021 28.3742L59.6615 29.5048C59.9666 29.5575 60.2806 29.5037 60.5508 29.3524L65.2512 26.6719Z" fill="#333067"/>
<path d="M68.0125 44.4614C66.7154 42.486 65.2888 40.4877 63.772 38.4907C65.2888 36.4924 66.7167 34.4941 68.0138 32.5199C77.0258 18.7592 79.4294 7.55829 74.4406 2.55682C70.0718 -1.79803 60.9098 -0.531466 49.3049 6.03257L50.555 8.24302C60.9403 2.3688 69.2028 0.918033 72.6468 4.35059C76.5964 8.31416 73.9502 18.824 65.8884 31.1225C64.7451 32.8731 63.4887 34.6414 62.1611 36.4123C58.9871 32.4229 55.5884 28.6175 51.9816 25.0145C46.0537 19.0324 39.539 13.6617 32.5359 8.98365C18.7752 -0.0271273 7.57049 -2.43449 2.57028 2.55682C-1.79854 6.93707 -0.50784 16.1321 6.1121 27.7954L8.32255 26.5402C2.39624 16.1054 0.918793 7.81109 4.3666 4.35313C8.33398 0.399719 18.8489 3.05353 31.1398 11.109C37.999 15.6913 44.3796 20.9521 50.1853 26.8121C53.876 30.4956 57.3443 34.3953 60.5719 38.4907C57.3443 42.586 53.876 46.4858 50.1853 50.1692C44.3793 56.029 37.9982 61.2894 31.1385 65.8711C18.84 73.9342 8.33144 76.5829 4.37041 72.6308C1.95669 70.2043 1.94018 65.3096 4.33103 58.851L1.94907 57.9617C-0.84576 65.5116 -0.632337 71.2029 2.57282 74.4207C3.54086 75.3078 4.67702 75.9916 5.91405 76.4317C7.15107 76.8718 8.46382 77.0593 9.77459 76.9831C15.5713 76.9831 23.501 73.9138 32.5347 67.9977C39.5383 63.3195 46.0535 57.9484 51.9816 51.9655C55.5884 48.3626 58.9871 44.5572 62.1611 40.5677C63.4874 42.3386 64.74 44.1057 65.8872 45.8563C73.9452 58.1574 76.5964 68.6672 72.6468 72.6282C69.1152 76.1497 60.6113 74.5566 49.9071 68.3623L48.6367 70.56C55.9833 74.8145 62.372 76.9831 67.2401 76.9831C68.5507 77.0602 69.8635 76.8736 71.1008 76.4343C72.338 75.9951 73.4745 75.3121 74.4431 74.4258C79.4294 69.4256 77.0258 58.2247 68.0125 44.4614Z" fill="#FADF98"/>
</svg>
