<?xml version="1.0" encoding="UTF-8"?>
<svg width="125px" height="35px" viewBox="0 0 125 35" version="1.1" xmlns="http://www.w3.org/2000/svg" xmlns:xlink="http://www.w3.org/1999/xlink">
    <!-- Generator: Sketch 50 (54983) - http://www.bohemiancoding.com/sketch -->
    <title>Logo White</title>
    <desc>Created with Sketch.</desc>
    <defs>
        <linearGradient x1="2.78571429%" y1="4.76317081%" x2="87.327567%" y2="69.388089%" id="linearGradient-1">
            <stop stop-color="#FFFFFF" offset="0%"></stop>
            <stop stop-color="#24CDFF" offset="100%"></stop>
        </linearGradient>
    </defs>
    <g id="Logo-White" stroke="none" stroke-width="1" fill="none" fill-rule="evenodd">
        <g>
          
            <path d="M56.688,17.312 C57.6640049,17.5680013 58.4199973,18.0479965 58.956,18.752 C59.4920027,19.4560035 59.76,20.3359947 59.76,21.392 C59.76,22.8800074 59.2720049,24.019996 58.296,24.812 C57.3199951,25.604004 55.936009,26 54.144,26 L48.096,26 C47.7919985,26 47.5480009,25.9120009 47.364,25.736 C47.1799991,25.5599991 47.088,25.3280014 47.088,25.04 L47.088,10.04 C47.088,9.75199856 47.1799991,9.52000088 47.364,9.344 C47.5480009,9.16799912 47.7919985,9.08 48.096,9.08 L53.88,9.08 C55.6240087,9.08 56.9759952,9.46399616 57.936,10.232 C58.8960048,11.0000038 59.376,12.087993 59.376,13.496 C59.376,14.4080046 59.1400024,15.1919967 58.668,15.848 C58.1959976,16.5040033 57.5360042,16.9919984 56.688,17.312 Z 
            M49.032,16.592 L53.592,16.592 C54.8560063,16.592 55.8119968,16.3360026 56.46,15.824 C57.1080032,15.3119974 57.432,14.5680049 57.432,13.592 C57.432,11.6719904 56.1520128,10.712 53.592,10.712 L49.032,10.712 L49.032,16.592 Z 
            M53.952,24.368 C55.2800066,24.368 56.2599968,24.1240024 56.892,23.636 C57.5240032,23.1479976 57.84,22.3840052 57.84,21.344 C57.84,19.2639896 56.544013,18.224 53.952,18.224 L49.032,18.224 L49.032,24.368 L53.952,24.368 Z 
            M72.824,23.288 C73.0000009,23.288 73.1519994,23.3599993 73.28,23.504 C73.4080007,23.6480007 73.472,23.8319989 73.472,24.056 C73.472,24.456002 73.1920028,24.8239983 72.632,25.16 C72.0559971,25.4960017 71.4480032,25.7479992 70.808,25.916 C70.1679968,26.0840008 69.5440031,26.168 68.936,26.168 C67.127991,26.168 65.7000053,25.6320054 64.652,24.56 C63.6039948,23.4879946 63.08,22.0080094 63.08,20.12 C63.08,18.919994 63.3119977,17.8600046 63.776,16.94 C64.2400023,16.0199954 64.8919958,15.3040026 65.732,14.792 C66.5720042,14.2799974 67.5279947,14.024 68.6,14.024 C70.1200076,14.024 71.3279955,14.519995 72.224,15.512 C73.1200045,16.504005 73.568,17.8479915 73.568,19.544 C73.568,19.8640016 73.5040007,20.0959993 73.376,20.24 C73.2479994,20.3840007 73.0400015,20.456 72.752,20.456 L65.024,20.456 C65.1680007,23.2080138 66.4719877,24.584 68.936,24.584 C69.5600031,24.584 70.0959978,24.5000008 70.544,24.332 C70.9920023,24.1639992 71.4719975,23.9360014 71.984,23.648 C72.4000021,23.4079988 72.6799993,23.288 72.824,23.288 Z 
            M68.624,15.536 C67.5999949,15.536 66.7800031,15.8559968 66.164,16.496 C65.5479969,17.1360032 65.1840006,18.0399942 65.072,19.208 L71.864,19.208 C71.8319999,18.0239941 71.5360028,17.1160032 70.976,16.484 C70.4159972,15.8519968 69.6320051,15.536 68.624,15.536 Z 
            M82,14.024 C84.9280147,14.024 86.392,15.5599846 86.392,18.632 L86.392,25.16 C86.392,25.4480014 86.3080009,25.6799991 86.14,25.856 C85.9719992,26.0320009 85.7440015,26.12 85.456,26.12 C85.1679986,26.12 84.9360009,26.0320009 84.76,25.856 C84.5839991,25.6799991 84.496,25.4480014 84.496,25.16 L84.496,24.008 C84.1919985,24.6960034 83.7280031,25.2279981 83.104,25.604 C82.4799969,25.9800019 81.7600041,26.168 80.944,26.168 C80.1919963,26.168 79.5000032,26.0160015 78.868,25.712 C78.2359969,25.4079985 77.7360019,24.9840027 77.368,24.44 C76.9999982,23.8959973 76.816,23.2960033 76.816,22.64 C76.816,21.7599956 77.0399978,21.0760024 77.488,20.588 C77.9360023,20.0999976 78.6719949,19.7480011 79.696,19.532 C80.7200051,19.3159989 82.1439909,19.208 83.968,19.208 L84.496,19.208 L84.496,18.416 C84.496,17.4559952 84.300002,16.7520022 83.908,16.304 C83.5159981,15.8559978 82.8800044,15.632 82,15.632 C80.9119946,15.632 79.8080056,15.927997 78.688,16.52 C78.2559979,16.7920014 77.9520009,16.928 77.776,16.928 C77.5839991,16.928 77.4240007,16.8560007 77.296,16.712 C77.1679994,16.5679993 77.104,16.3840011 77.104,16.16 C77.104,15.9359989 77.1719993,15.7400008 77.308,15.572 C77.4440007,15.4039992 77.6639985,15.2320009 77.968,15.056 C78.5280028,14.7359984 79.1639965,14.4840009 79.876,14.3 C80.5880036,14.1159991 81.2959965,14.024 82,14.024 Z 
            M81.208,24.632 C82.1680048,24.632 82.9559969,24.3080032 83.572,23.66 C84.1880031,23.0119968 84.496,22.1760051 84.496,21.152 L84.496,20.456 L84.064,20.456 C82.655993,20.456 81.5840037,20.5159994 80.848,20.636 C80.1119963,20.7560006 79.5880016,20.9559986 79.276,21.236 C78.9639985,21.5160014 78.808,21.9279973 78.808,22.472 C78.808,23.0960031 79.0359977,23.611998 79.492,24.02 C79.9480023,24.428002 80.5199966,24.632 81.208,24.632 Z 
            M96.624,14.024 C97.6480052,14.024 98.5519961,14.2799974 99.336,14.792 C100.120004,15.3040026 100.727998,16.0199954 101.16,16.94 C101.592002,17.8600046 101.808,18.9279939 101.808,20.144 C101.808,21.3600061 101.592002,22.4199955 101.16,23.324 C100.727998,24.2280045 100.124004,24.9279975 99.348,25.424 C98.5719962,25.9200025 97.6640052,26.168 96.624,26.168 C95.7119955,26.168 94.9160034,25.968002 94.236,25.568 C93.5559966,25.167998 93.0400018,24.6000037 92.688,23.864 L92.688,29.504 C92.688,29.7920014 92.6040009,30.0199992 92.436,30.188 C92.2679992,30.3560008 92.0320016,30.44 91.728,30.44 C91.4239985,30.44 91.1840009,30.3520009 91.008,30.176 C90.8319992,29.9999991 90.744,29.7760014 90.744,29.504 L90.744,15.032 C90.744,14.7439986 90.8319992,14.5120009 91.008,14.336 C91.1840009,14.1599991 91.4239985,14.072 91.728,14.072 C92.0320016,14.072 92.2679992,14.1599991 92.436,14.336 C92.6040009,14.5120009 92.688,14.7439986 92.688,15.032 L92.688,16.328 C93.0400018,15.5919963 93.5559966,15.024002 94.236,14.624 C94.9160034,14.223998 95.7119955,14.024 96.624,14.024 Z 
            M96.24,24.56 C97.3760057,24.56 98.2559969,24.1760038 98.88,23.408 C99.5040032,22.6399962 99.816,21.552007 99.816,20.144 C99.816,18.735993 99.5040032,17.636004 98.88,16.844 C98.2559969,16.051996 97.3760057,15.656 96.24,15.656 C95.1039944,15.656 94.2280031,16.0399962 93.612,16.808 C92.995997,17.5760038 92.688,18.6719929 92.688,20.096 C92.688,21.5200071 92.995997,22.6199961 93.612,23.396 C94.2280031,24.1720039 95.1039944,24.56 96.24,24.56 Z
             M111.392,14.024 C112.416005,14.024 113.319996,14.2799974 114.104,14.792 C114.888004,15.3040026 115.495998,16.0199954 115.928,16.94 C116.360002,17.8600046 116.576,18.9279939 116.576,20.144 C116.576,21.3600061 116.360002,22.4199955 115.928,23.324 C115.495998,24.2280045 114.892004,24.9279975 114.116,25.424 C113.339996,25.9200025 112.432005,26.168 111.392,26.168 C110.479995,26.168 109.684003,25.968002 109.004,25.568 C108.323997,25.167998 107.808002,24.6000037 107.456,23.864 L107.456,29.504 C107.456,29.7920014 107.372001,30.0199992 107.204,30.188 C107.035999,30.3560008 106.800002,30.44 106.496,30.44 C106.191999,30.44 105.952001,30.3520009 105.776,30.176 C105.599999,29.9999991 105.512,29.7760014 105.512,29.504 L105.512,15.032 C105.512,14.7439986 105.599999,14.5120009 105.776,14.336 C105.952001,14.1599991 106.191999,14.072 106.496,14.072 C106.800002,14.072 107.035999,14.1599991 107.204,14.336 C107.372001,14.5120009 107.456,14.7439986 107.456,15.032 L107.456,16.328 C107.808002,15.5919963 108.323997,15.024002 109.004,14.624 C109.684003,14.223998 110.479995,14.024 111.392,14.024 Z 
             M111.008,24.56 C112.144006,24.56 113.023997,24.1760038 113.648,23.408 C114.272003,22.6399962 114.584,21.552007 114.584,20.144 C114.584,18.735993 114.272003,17.636004 113.648,16.844 C113.023997,16.051996 112.144006,15.656 111.008,15.656 C109.871994,15.656 108.996003,16.0399962 108.38,16.808 C107.763997,17.5760038 107.456,18.6719929 107.456,20.096 C107.456,21.5200071 107.763997,22.6199961 108.38,23.396 C108.996003,24.1720039 109.871994,24.56 111.008,24.56 Z" id="Beapp" fill="#FFFFFF"></path>
        </g>
    </g>
</svg>