<svg width="40" height="40" viewBox="0 0 40 40" fill="none" xmlns="http://www.w3.org/2000/svg">
<g clip-path="url(#clip0_775_745)">
<path d="M33.75 29.3125C33.75 36.875 27.625 36.875 20 36.875C12.375 36.875 6.25 36.875 6.25 29.3125C6.25 21.75 12.4375 9.375 20 9.375C27.5625 9.375 33.75 21.6875 33.75 29.3125Z" fill="#DBB471"/>
<path opacity="0.5" d="M33.75 29.3125C33.75 26.75 33.0625 23.625 31.8125 20.625C32.0625 22.5625 31.5625 26 25.625 27.3125C17.1875 29.125 21.5625 31.5 18.25 31.8125C15.4375 32.0625 7.9375 30.9375 6.4375 26.6875C6.3125 27.625 6.1875 28.5 6.1875 29.375C6.25 36.875 12.4375 36.875 20 36.875C27.5625 36.875 33.75 36.875 33.75 29.3125Z" fill="#89664C"/>
<path d="M23.688 25.6875C23.438 24.4375 22.3755 24.0625 21.2505 24V22.25C21.563 22.375 21.938 22.5625 22.188 22.75C22.688 23.0625 23.188 22.25 22.688 21.9375C22.2505 21.6875 21.7505 21.4375 21.2505 21.25V19.1875C21.2505 18.5625 20.313 18.5625 20.313 19.1875V21C19.813 20.9375 19.313 20.9375 18.813 21C18.7505 20.5625 18.6255 20.125 18.5005 19.6875C18.3755 19.0625 17.438 19.3125 17.6255 19.9375C17.7505 20.375 17.813 20.8125 17.938 21.25C17.8755 21.25 17.8755 21.25 17.813 21.3125C16.563 21.8125 15.7505 23.0625 16.688 24.25C17.1255 24.8125 17.688 25 18.313 25.125C18.3755 25.9375 18.3755 26.75 18.3755 27.5625C17.938 27.3125 17.563 26.9375 17.2505 26.625C16.813 26.1875 16.188 26.875 16.563 27.3125C17.1255 27.9375 17.7505 28.375 18.3755 28.6875C18.3755 29.375 18.438 30.0625 18.5005 30.75C18.563 31.375 19.5005 31.375 19.438 30.75C19.3755 30.125 19.313 29.5625 19.313 28.9375C19.688 29 20.063 29 20.438 29C20.5005 29.625 20.563 30.25 20.6255 30.9375C20.688 31.5625 21.6255 31.5625 21.563 30.9375C21.5005 30.25 21.438 29.5625 21.3755 28.8125C22.7505 28.3125 24.0005 27.25 23.688 25.6875ZM20.313 21.9375V24C20.0005 24 19.7505 24.0625 19.5005 24.0625H19.188L19.0005 21.8125C19.438 21.8125 19.8755 21.875 20.313 21.9375ZM18.063 23.9375C17.813 23.875 17.563 23.6875 17.313 23.5C16.7505 22.9375 17.563 22.4375 18.063 22.1875C18.1255 22.8125 18.188 23.375 18.2505 24C18.188 24 18.1255 24 18.063 23.9375ZM20.1255 27.9375C19.813 28 19.563 27.9375 19.313 27.875C19.2505 26.9375 19.2505 26 19.2505 25C19.6255 25 20.0005 24.9375 20.3755 24.9375C20.3755 25.9375 20.438 26.875 20.438 27.875C20.313 27.9375 20.2505 27.9375 20.1255 27.9375ZM22.188 27.25C21.938 27.4375 21.6255 27.5625 21.3755 27.6875C21.313 26.75 21.313 25.875 21.313 24.9375H21.6255C22.813 25.1875 23.1255 26.5 22.188 27.25Z" fill="#89664C"/>
<path d="M21.25 34.375H19.8125V36.875L25.625 40L38.75 35.9375V33.75L33.9375 30.9375L21.25 34.375Z" fill="#699635"/>
<path d="M20 32.9375C20 32.9375 21.5 35.375 25.75 37.5C25.75 37.5 32.375 37.1875 38.75 32.9375C38.75 32.9375 35.0625 31.125 34 28.75C34 28.75 31.5 32.25 20 32.9375Z" fill="#83BF4F"/>
<path d="M17.1875 34.3125L18.5625 34.25L18.75 36.5625L13.3125 40L0.25 37.1875L0.0625 35.125L4.5 32.0625L17.1875 34.3125Z" fill="#699635"/>
<path d="M18.25 32.875C18.25 32.875 16.9375 35.3125 13 37.625C13 37.625 6.5625 37.8125 0 34.375C0 34.375 3.5 32.375 4.3125 30C4.3125 30 7.0625 33.125 18.25 32.875Z" fill="#83BF4F"/>
<path d="M15.125 33.5623C15.125 33.5623 14.9375 34.0623 15.8125 34.1248L13.5 36.0623C13.5 36.0623 12.125 35.9373 11.8125 36.8748C11.8125 36.8748 6.1875 36.2498 2.5625 34.6248C2.5625 34.6248 3.3125 34.0623 2.375 33.6873C2.375 33.6873 3.4375 32.9373 3.6875 32.2498C3.6875 32.2498 4.6875 32.3748 5 31.6248C5.125 31.5623 8.875 33.8123 15.125 33.5623V33.5623Z" stroke="#699635" stroke-miterlimit="10"/>
<path d="M5.5 34.4375C6.15584 34.4375 6.6875 34.0737 6.6875 33.625C6.6875 33.1763 6.15584 32.8125 5.5 32.8125C4.84416 32.8125 4.3125 33.1763 4.3125 33.625C4.3125 34.0737 4.84416 34.4375 5.5 34.4375Z" fill="#699635"/>
<path d="M11.875 32.625C11.875 32.625 10.4375 34.5 7.3125 37.0625L7.5 38.75L5.3125 38.25L5.1875 36.4375C5.1875 36.4375 8.375 33.5 9.0625 32.0625C9 32.0625 10.125 32.4375 11.875 32.625Z" fill="#F9F3D9"/>
<path d="M26.3125 32.1875C26.3125 32.1875 26.875 33.6875 31.125 36.4375V38.25L33.5625 37.5V35.625C33.5625 35.625 30.625 33.5625 28.875 31.5L26.3125 32.1875Z" fill="#F9F3D9"/>
<path d="M22.75 30.1875L21.375 30.125L21.25 32.6875L26.8125 36.25L39.875 32.6875L39.9375 30.4375L35.375 27.25L22.75 30.1875Z" fill="#699635"/>
<path d="M21.625 28.625C21.625 28.625 23 31.25 27.0625 33.625C27.0625 33.625 33.5625 33.625 40 29.625C40 29.625 36.4375 27.5625 35.5625 25C35.5625 25 32.875 28.5 21.625 28.625Z" fill="#83BF4F"/>
<path d="M24.4375 29.3125C24.4375 29.3125 24.75 29.8125 23.75 30L26.375 32.0625C26.375 32.0625 27.875 31.6875 28.375 32.5625C28.375 32.5625 34.625 31.4375 37.5 29.9375C37.5 29.9375 36.5625 29.5 37.5 28.9375C37.5 28.9375 36.375 28 35.9375 27.375C35.9375 27.375 34.875 27.6875 34.3125 26.9375C34.3125 27 32.0625 29 24.4375 29.3125V29.3125Z" stroke="#699635" stroke-miterlimit="10"/>
<path d="M29.2496 30.8752C28.9996 31.1877 28.1871 31.3127 27.4996 31.1252C26.8121 30.9377 26.4996 30.5002 26.7496 30.1877C26.9996 29.8752 27.8121 29.7502 28.4996 29.9377C29.1871 30.1252 29.4996 30.5002 29.2496 30.8752Z" fill="#699635"/>
<path d="M28 28.125C28 28.125 29.5 30.125 32.6875 32.8125L32.625 34.6875L34.8125 34.0625L34.875 32.0625C34.875 32.0625 31.625 28.9375 30.8125 27.4375C30.875 27.4375 29.8125 27.875 28 28.125Z" fill="#F9F3D9"/>
<path d="M28.75 1.25C28.75 5.0625 23.8125 11.25 20 11.25C16.1875 11.25 11.25 5.6875 11.25 1.875C11.25 -1.9375 11.8125 1.875 15.625 1.875C16.1875 1.875 18.8125 0 20 0C20.8125 0 23.125 1.875 24.375 1.875C27.6875 1.875 28.75 -1.625 28.75 1.25Z" fill="#DBB471"/>
<path d="M18.8745 8.31243C18.4995 8.56243 16.687 8.37493 16.1245 8.81243C15.3745 9.37493 16.437 10.6874 15.687 11.4999C14.187 12.9999 12.9995 14.6874 13.3745 15.6249C13.9995 17.2499 15.187 12.6249 16.2495 14.3749C17.312 16.1249 17.1245 13.1874 18.7495 14.6874C20.3745 16.1874 18.9995 11.9999 20.562 13.8124C22.1245 15.6249 22.187 17.6874 23.312 17.6874C24.6245 17.6874 21.937 12.7499 23.687 13.9374C25.437 15.1249 27.3745 14.6874 25.6245 12.8749C25.062 12.3124 24.312 11.3124 23.437 10.4374C23.1245 10.1249 23.3745 8.49993 23.062 8.24993C22.687 7.93743 21.7495 8.93743 21.3745 8.74993C20.6245 8.37493 20.8745 9.06243 19.7495 9.24993C18.9995 9.49993 19.6245 7.81243 18.8745 8.31243Z" fill="#89664C"/>
<path d="M11.6876 11.9998C14.1251 9.68727 18.5626 10.9998 21.1876 12.1248C23.7501 13.2498 25.3126 9.68727 23.6876 7.87477C22.7501 6.81227 21.2501 8.06227 20.6876 8.81227C20.0626 9.56227 19.5626 10.3748 18.8751 11.1248C17.8751 12.2498 15.4376 11.3123 16.1876 9.74977C17.0001 8.12477 20.4376 9.99977 21.5626 10.3123C23.7501 10.9373 26.0626 11.1873 28.2501 10.3748C29.0001 10.1248 28.6876 8.87477 27.9376 9.18727C25.5001 10.0623 23.0626 9.49977 20.7501 8.74977C19.5626 8.37477 17.6876 7.37477 16.4376 7.93727C12.8751 9.62477 16.1876 14.4373 19.1876 12.5623C19.8751 12.1248 20.3126 11.4373 20.8126 10.8123C21.1251 10.4373 22.6876 8.06227 23.0626 9.24977C23.2501 9.87477 23.0626 10.9998 22.3751 11.1873C21.9376 11.3748 21.0626 10.7498 20.6251 10.6248C19.8126 10.3123 19.0001 10.0623 18.1251 9.87477C15.8126 9.37477 12.6876 9.49977 10.8751 11.1873C10.2501 11.6873 11.1251 12.5623 11.6876 11.9998Z" fill="#E8E8E8"/>
<path d="M28 0.3125C27.375 0.8125 26.25 1.875 24.375 1.875C23.125 1.875 20.8125 0 20 0C18.8125 0 16.1875 1.875 15.625 1.875C13.5625 1.875 12.4375 0.8125 11.875 0.375C11.875 0.375 12.5625 3.1875 14.6875 4.625C16.25 5.625 16.0625 4.4375 16.875 3.3125C17.6875 2.1875 18.25 1.625 19.6875 4.4375C20.4375 6 21.875 0.1875 23 2.0625C25.0625 5.5 25.8125 3.625 28 0.3125Z" fill="#89664C"/>
<path d="M32.75 32.75L32.6875 34.625L34.875 34L34.9375 32C34.9375 32.0625 33.625 32.5625 32.75 32.75Z" fill="#DBB471"/>
<path d="M31.125 36.5V38.3125L33.5625 37.5625V35.6875C33.5 35.625 32.875 36 31.125 36.5Z" fill="#DBB471"/>
<path d="M7.31271 37L7.50021 38.75L5.31271 38.25L5.18771 36.4375C5.12521 36.4375 6.00021 36.75 7.31271 37Z" fill="#DBB471"/>
</g>
<defs>
<clipPath id="clip0_775_745">
<rect width="40" height="40" fill="white"/>
</clipPath>
</defs>
</svg>
