<svg width="76" height="75" viewBox="0 0 76 75" fill="none" xmlns="http://www.w3.org/2000/svg">
    <ellipse cx="38.0076" cy="37.5" rx="37.7312" ry="37.5" fill="#FDF8EC"/>
    <path d="M52.6327 25H23.382C21.1791 25 19.3933 26.6565 19.3933 28.7V45.9667C19.3933 48.0101 21.1791 49.6667 23.382 49.6667H52.6327C54.8356 49.6667 56.6214 48.0101 56.6214 45.9667V28.7C56.6214 26.6565 54.8356 25 52.6327 25ZM53.9622 45.9667C53.9622 46.6478 53.3669 47.2 52.6326 47.2H23.382C22.6477 47.2 22.0524 46.6478 22.0524 45.9667V38.5667H53.9622V45.9667ZM53.9622 36.1H22.0524V33.6334H53.9622V36.1ZM53.9622 31.1667H22.0524V28.7C22.0524 28.0188 22.6477 27.4666 23.382 27.4666H52.6327C53.367 27.4666 53.9623 28.0188 53.9623 28.7V31.1667H53.9622Z" fill="#556BC8"/>
    <path d="M49.9741 41.0331H44.6558C43.9214 41.0331 43.3262 41.5853 43.3262 42.2664C43.3262 42.9476 43.9214 43.4998 44.6558 43.4998H49.9741C50.7084 43.4998 51.3037 42.9476 51.3037 42.2664C51.3037 41.5853 50.7084 41.0331 49.9741 41.0331Z" fill="#556BC8"/>
</svg>
