<svg width="76" height="75" viewBox="0 0 76 75" fill="none" xmlns="http://www.w3.org/2000/svg">
    <ellipse cx="38.0076" cy="37.5" rx="37.7312" ry="37.5" fill="#FDF8EC"/>
    <path d="M56.403 30.3453C56.197 30.0726 55.8739 29.9121 55.5308 29.9121H48.8358C48.3049 26.2399 45.1189 23.4082 41.2794 23.4082C37.4399 23.4082 34.2538 26.2399 33.7229 29.9121H28.0475L26.6224 19.9317C26.5461 19.3972 26.0858 19 25.5426 19H20.484C19.8816 19 19.3933 19.4853 19.3933 20.084C19.3933 20.6826 19.8816 21.168 20.484 21.168H24.5958C24.5976 21.1806 27.6578 42.6739 27.6584 42.6775C27.8479 43.9208 28.4593 45.06 29.3838 45.9033C28.656 46.5002 28.1914 47.4033 28.1914 48.4121C28.1914 49.9097 29.2155 51.1733 30.604 51.5494C30.4554 51.9207 30.3727 52.3249 30.3727 52.748C30.3727 54.5412 31.8405 56 33.6447 56C35.4489 56 36.9167 54.5412 36.9167 52.748C36.9167 52.3681 36.8502 52.0033 36.7291 51.6633H45.8296C45.7086 52.0033 45.642 52.368 45.642 52.748C45.642 54.5412 47.1099 56 48.914 56C50.7182 56 52.186 54.5412 52.186 52.748C52.186 50.9549 50.7182 49.4961 48.914 49.4961H31.4634C30.862 49.4961 30.3727 49.0098 30.3727 48.4121C30.3727 47.8144 30.862 47.3281 31.4634 47.3281H47.8016C50.2333 47.3281 52.386 45.7123 53.0385 43.3976L56.578 31.2987C56.6738 30.9712 56.609 30.6181 56.403 30.3453ZM48.914 51.6641C49.5154 51.6641 50.0047 52.1503 50.0047 52.748C50.0047 53.3458 49.5154 53.832 48.914 53.832C48.3126 53.832 47.8234 53.3458 47.8234 52.748C47.8234 52.1503 48.3126 51.6641 48.914 51.6641ZM33.6447 51.6641C34.2461 51.6641 34.7354 52.1503 34.7354 52.748C34.7354 53.3458 34.2461 53.832 33.6447 53.832C33.0433 53.832 32.554 53.3458 32.554 52.748C32.554 52.1503 33.0433 51.6641 33.6447 51.6641ZM41.2794 25.5762C44.2863 25.5762 46.7327 28.0075 46.7327 30.9961C46.7327 33.9846 44.2863 36.416 41.2794 36.416C38.2724 36.416 35.826 33.9846 35.826 30.9961C35.826 28.0075 38.2724 25.5762 41.2794 25.5762ZM50.9391 42.8092C50.5505 44.1935 49.2603 45.1602 47.8016 45.1602C47.1805 45.1602 33.9627 45.1602 33.0557 45.1602C31.4277 45.1602 30.0659 43.9817 29.8157 42.3576L28.3561 32.0801H33.7229C34.2538 35.7523 37.4399 38.584 41.2794 38.584C45.1189 38.584 48.3049 35.7523 48.8358 32.0801H54.0778C54.0778 32.0801 50.9401 42.8055 50.9391 42.8092ZM39.4175 33.9305C39.8434 34.3538 40.534 34.3538 40.9599 33.9305L44.2319 30.6786C44.6579 30.2552 44.6579 29.5689 44.2319 29.1456C43.8061 28.7223 43.1155 28.7223 42.6895 29.1456L40.1887 31.6311L39.8692 31.3136C39.4433 30.8903 38.7527 30.8903 38.3268 31.3136C37.9008 31.737 37.9008 32.4233 38.3268 32.8466L39.4175 33.9305Z" fill="#556BC8"/>
</svg>
