<svg width="124" height="124" viewBox="0 0 124 124" fill="none" xmlns="http://www.w3.org/2000/svg">
<circle cx="62" cy="62" r="62" fill="#9E9BDD"/>
<circle cx="62" cy="62" r="46" fill="#746FDE"/>
<circle cx="62" cy="62" r="30" fill="#3F38DD"/>
<g clip-path="url(#clip0)">
<path d="M60.4213 69.1302C60.7262 68.8247 60.7262 68.3303 60.4213 68.0248C60.1161 67.7202 59.6218 67.7202 59.3163 68.0248C59.0117 68.3303 59.0117 68.8247 59.3163 69.1302C59.6218 69.4347 60.1161 69.4347 60.4213 69.1302Z" fill="white"/>
<path d="M56.7226 50.5913C56.7226 55.3286 60.5767 59.1829 65.3139 59.1829C70.0512 59.1829 73.9052 55.3286 73.9052 50.5913C73.9052 45.8541 70.0512 42 65.3139 42C60.5767 42 56.7226 45.8541 56.7226 50.5913ZM72.3433 50.5913C72.3433 54.4674 69.1899 57.6207 65.3139 57.6207C61.4379 57.6207 58.2845 54.4674 58.2845 50.5913C58.2845 46.7156 61.4379 43.5622 65.3139 43.5622C69.1899 43.5622 72.3433 46.7156 72.3433 50.5913Z" fill="white"/>
<path d="M51.0353 81.769C51.3381 82.0742 51.8309 82.0775 52.1376 81.7754L55.9242 78.0449C56.5676 77.4016 56.7632 76.4492 56.4803 75.6212L57.2948 74.8357C57.7333 74.4121 58.3107 74.1787 58.9211 74.1787H69.3041C71.1461 74.1787 72.8871 73.4713 74.207 72.1868C74.2614 72.134 73.7947 72.6836 81.2905 63.7249C82.4022 62.4096 82.2359 60.4345 80.9194 59.3215C79.6111 58.2189 77.6512 58.3773 76.5364 59.67L71.9277 64.4069C71.3457 63.6907 70.4583 63.2442 69.4994 63.2442H60.79C59.5507 62.7257 58.2356 62.4633 56.8788 62.4633C53.1178 62.4633 49.8339 64.2003 48.0715 67.4572C47.329 67.3165 46.5459 67.5411 45.9825 68.1045L42.267 71.831C41.9637 72.1352 41.9631 72.6275 42.2658 72.9326L51.0353 81.769ZM56.8785 64.0252C58.0748 64.0252 59.2314 64.266 60.3169 64.7408C60.4158 64.7841 60.5223 64.8064 60.6301 64.8064H69.4994C70.3463 64.8064 71.0616 65.497 71.0616 66.3683C71.0616 67.2298 70.3609 67.9305 69.4994 67.9305H63.127C62.6958 67.9305 62.3461 68.2802 62.3461 68.7114C62.3461 69.143 62.6958 69.4924 63.127 69.4924H69.4994C71.2221 69.4924 72.6235 68.091 72.6235 66.3683C72.6235 66.231 72.6137 66.0949 72.596 65.96C77.0543 61.3772 77.683 60.7332 77.7098 60.7012C78.2665 60.0441 79.2546 59.9608 79.912 60.515C80.57 61.0714 80.6533 62.0589 80.0951 62.7196L73.0898 71.0943C72.0668 72.0763 70.7238 72.6168 69.3041 72.6168H58.9211C57.9036 72.6168 56.9405 73.0059 56.2099 73.7118L55.5461 74.3523L49.4274 68.2338C50.8574 65.551 53.5408 64.0252 56.8785 64.0252ZM47.0879 69.2083C47.3454 68.9507 47.741 68.9043 48.055 69.0984C48.1902 69.1808 47.802 68.8274 54.8198 75.8355C55.132 76.1477 55.1152 76.6451 54.8241 76.9362L51.5959 80.1165L43.9217 72.3836L47.0879 69.2083Z" fill="white"/>
<path d="M64.3767 45.9053V46.8206C63.4676 47.1428 62.8145 48.011 62.8145 49.0294C62.8145 50.3212 63.8655 51.3726 65.1577 51.3726C65.5883 51.3726 65.9386 51.7229 65.9386 52.1535C65.9386 52.5841 65.5883 52.9345 65.1577 52.9345C64.8241 52.9345 64.4637 52.7248 64.1436 52.3436C63.8658 52.0134 63.3733 51.971 63.0431 52.2484C62.7129 52.5261 62.6702 53.0187 62.9479 53.3489C63.3654 53.8454 63.8564 54.1915 64.3767 54.366V55.2776C64.3767 55.7091 64.7264 56.0585 65.1577 56.0585C65.5889 56.0585 65.9386 55.7091 65.9386 55.2776V54.3624C66.8477 54.0398 67.5008 53.1716 67.5008 52.1535C67.5008 50.8614 66.4498 49.8104 65.1577 49.8104C64.7271 49.8104 64.3767 49.46 64.3767 49.0294C64.3767 48.5988 64.7271 48.2482 65.1577 48.2482C65.4345 48.2482 65.7265 48.3895 66.0024 48.6565C66.3124 48.9565 66.8068 48.9482 67.1068 48.6385C67.4068 48.3284 67.3986 47.834 67.0888 47.5341C66.6924 47.1505 66.2957 46.9335 65.9386 46.8151V45.9053C65.9386 45.4738 65.5889 45.1241 65.1577 45.1241C64.7264 45.1241 64.3767 45.4738 64.3767 45.9053Z" fill="white"/>
</g>
<defs>
<clipPath id="clip0">
<rect width="39.9219" height="40" fill="white" transform="translate(42 42)"/>
</clipPath>
</defs>
</svg>
