<svg width="76" height="75" viewBox="0 0 76 75" fill="none" xmlns="http://www.w3.org/2000/svg">
    <ellipse cx="38.0076" cy="37.5" rx="37.7312" ry="37.5" fill="#FDF8EC"/>
    <path d="M55.0715 35.9596C54.213 35.9596 53.5216 36.6467 53.5216 37.5C53.5216 46.0024 46.5622 52.9192 38.0074 52.9192C29.4525 52.9192 22.4931 46.0024 22.4931 37.5C22.4931 28.9976 29.4525 22.0808 38.0074 22.0808C42.6799 22.0808 47.0105 24.1271 49.9431 27.6459H44.5869C43.7283 27.6459 43.037 28.3331 43.037 29.1863C43.037 30.0396 43.7283 30.7267 44.5869 30.7267H53.2937C54.1522 30.7267 54.8436 30.0396 54.8436 29.1863V20.5404C54.8436 19.6871 54.1522 19 53.2937 19C52.4352 19 51.7438 19.6871 51.7438 20.5404V24.9955C48.2413 21.1973 43.3105 19 38.0074 19C27.743 19 19.3933 27.2986 19.3933 37.5C19.3933 47.7014 27.743 56 38.0074 56C48.2717 56 56.6214 47.7014 56.6214 37.5C56.6214 36.6467 55.93 35.9596 55.0715 35.9596Z" fill="#556BC8"/>
</svg>
