<svg width="124" height="124" viewBox="0 0 124 124" fill="none" xmlns="http://www.w3.org/2000/svg">
<circle cx="62" cy="62" r="62" fill="#9E9BDD"/>
<circle cx="62" cy="62" r="46" fill="#746FDE"/>
<circle cx="62" cy="62" r="30" fill="#3F38DD"/>
<g clip-path="url(#clip0)">
<path d="M62.8234 84C62.605 84 62.3917 83.9134 62.2334 83.7567C62.0367 83.56 61.95 83.2767 62.005 83.005L63.1834 77.1134C63.2167 76.95 63.2934 76.8017 63.4117 76.6867L76.375 63.7233C77.3484 62.75 78.9367 62.75 79.91 63.7233L82.2667 66.08C83.2417 67.055 83.2417 68.64 82.2667 69.615L69.3034 82.5784C69.1884 82.695 69.04 82.7734 68.8767 82.8067L62.985 83.985C62.9317 83.995 62.8767 84 62.8234 84ZM64.77 77.685L63.8867 82.1034L68.305 81.22L81.09 68.435C81.415 68.11 81.415 67.5817 81.09 67.2567L78.7334 64.9C78.4084 64.575 77.88 64.575 77.555 64.9L64.77 77.685ZM68.715 81.9884H68.7317H68.715Z" fill="white"/>
<path d="M58.8333 79H47.1667C44.8683 79 43 77.1317 43 74.8333V53.1667C43 50.8683 44.8683 49 47.1667 49H50.5C50.96 49 51.3333 49.3733 51.3333 49.8333C51.3333 50.2933 50.96 50.6667 50.5 50.6667H47.1667C45.7883 50.6667 44.6667 51.7883 44.6667 53.1667V74.8333C44.6667 76.2117 45.7883 77.3333 47.1667 77.3333H58.8333C59.2933 77.3333 59.6667 77.7067 59.6667 78.1667C59.6667 78.6267 59.2933 79 58.8333 79Z" fill="white"/>
<path d="M70.5 64C70.04 64 69.6667 63.6267 69.6667 63.1667V53.1667C69.6667 51.7883 68.545 50.6667 67.1667 50.6667H63.8333C63.3733 50.6667 63 50.2933 63 49.8333C63 49.3733 63.3733 49 63.8333 49H67.1667C69.465 49 71.3333 50.8683 71.3333 53.1667V63.1667C71.3333 63.6267 70.96 64 70.5 64Z" fill="white"/>
<path d="M62.1666 54H52.1666C50.7883 54 49.6666 52.8783 49.6666 51.5V48.1667C49.6666 47.7067 50.04 47.3333 50.5 47.3333H53.0833C53.47 45.4333 55.155 44 57.1666 44C59.1783 44 60.8633 45.4333 61.2499 47.3333H63.8333C64.2933 47.3333 64.6666 47.7067 64.6666 48.1667V51.5C64.6666 52.8783 63.5449 54 62.1666 54ZM51.3333 49V51.5C51.3333 51.9583 51.7083 52.3333 52.1666 52.3333H62.1666C62.6249 52.3333 62.9999 51.9583 62.9999 51.5V49H60.4999C60.0399 49 59.6666 48.6267 59.6666 48.1667C59.6666 46.7883 58.5449 45.6667 57.1666 45.6667C55.7883 45.6667 54.6666 46.7883 54.6666 48.1667C54.6666 48.6267 54.2933 49 53.8333 49H51.3333Z" fill="white"/>
<path d="M65.5 59H48.8333C48.3733 59 48 58.6267 48 58.1667C48 57.7067 48.3733 57.3334 48.8333 57.3334H65.5C65.96 57.3334 66.3333 57.7067 66.3333 58.1667C66.3333 58.6267 65.96 59 65.5 59Z" fill="white"/>
<path d="M65.5 64H48.8333C48.3733 64 48 63.6266 48 63.1666C48 62.7066 48.3733 62.3333 48.8333 62.3333H65.5C65.96 62.3333 66.3333 62.7066 66.3333 63.1666C66.3333 63.6266 65.96 64 65.5 64Z" fill="white"/>
<path d="M65.5 69H48.8333C48.3733 69 48 68.6267 48 68.1667C48 67.7067 48.3733 67.3334 48.8333 67.3334H65.5C65.96 67.3334 66.3333 67.7067 66.3333 68.1667C66.3333 68.6267 65.96 69 65.5 69Z" fill="white"/>
</g>
<defs>
<clipPath id="clip0">
<rect width="40" height="40" fill="white" transform="translate(43 44)"/>
</clipPath>
</defs>
</svg>
