       <svg width="76" height="44" viewBox="0 0 76 44" fill="none" xmlns="http://www.w3.org/2000/svg">
<rect width="76" height="44" rx="8" fill="#FFC327"/>
<path d="M15 22H33" stroke="#50555C" stroke-width="2" stroke-linecap="round" stroke-linejoin="round"/>
<path d="M15 16H33" stroke="#50555C" stroke-width="2" stroke-linecap="round" stroke-linejoin="round"/>
<path d="M15 28H33" stroke="#50555C" stroke-width="2" stroke-linecap="round" stroke-linejoin="round"/>
<circle cx="52" cy="22" r="12" fill="#50555C"/>
<path d="M51.8861 23.7073C52.9449 23.7073 53.8618 23.3275 54.6109 22.5782C55.3601 21.8291 55.7398 20.9125 55.7398 19.8535C55.7398 18.7949 55.3601 17.8782 54.6108 17.1288C53.8615 16.3798 52.9448 16 51.8861 16C50.8271 16 49.9105 16.3798 49.1613 17.1289C48.4122 17.8781 48.0323 18.7948 48.0323 19.8535C48.0323 20.9125 48.4122 21.8292 49.1615 22.5784C49.9107 23.3274 50.8275 23.7073 51.8861 23.7073V23.7073Z" fill="#FFBF18"/>
<path d="M58.629 28.3032C58.6074 27.9915 58.5637 27.6514 58.4994 27.2922C58.4344 26.9304 58.3508 26.5884 58.2507 26.2758C58.1473 25.9526 58.0067 25.6335 57.8329 25.3278C57.6525 25.0104 57.4406 24.734 57.2028 24.5066C56.9541 24.2687 56.6497 24.0774 56.2976 23.9379C55.9468 23.7991 55.558 23.7288 55.1421 23.7288C54.9788 23.7288 54.8208 23.7958 54.5157 23.9944C54.328 24.1168 54.1084 24.2584 53.8633 24.415C53.6537 24.5486 53.3698 24.6737 53.019 24.787C52.6769 24.8977 52.3295 24.9539 51.9866 24.9539C51.6437 24.9539 51.2964 24.8977 50.9539 24.787C50.6035 24.6738 50.3196 24.5487 50.1102 24.4152C49.8674 24.26 49.6477 24.1184 49.4572 23.9943C49.1525 23.7957 48.9944 23.7286 48.8311 23.7286C48.415 23.7286 48.0264 23.7991 47.6757 23.938C47.3239 24.0773 47.0193 24.2686 46.7704 24.5067C46.5327 24.7343 46.3207 25.0105 46.1405 25.3278C45.9668 25.6335 45.8262 25.9525 45.7227 26.2759C45.6227 26.5885 45.5391 26.9304 45.4741 27.2922C45.4098 27.6509 45.3661 27.9911 45.3445 28.3036C45.3232 28.6097 45.3125 28.9275 45.3125 29.2484C45.3125 30.0836 45.578 30.7598 46.1016 31.2584C46.6187 31.7505 47.3029 32.0001 48.1349 32.0001H55.839C56.671 32.0001 57.355 31.7506 57.8722 31.2584C58.3959 30.7601 58.6614 30.0839 58.6614 29.2483C58.6613 28.9259 58.6504 28.6079 58.629 28.3032V28.3032Z" fill="#FFBF18"/>
</svg>